<?xml version="1.0" encoding="utf-8"?>
<!-- Generator: Adobe Illustrator 25.2.1, SVG Export Plug-In . SVG Version: 6.00 Build 0)  -->
<svg version="1.1" id="Capa_1" xmlns="http://www.w3.org/2000/svg" xmlns:xlink="http://www.w3.org/1999/xlink" x="0px" y="0px"
	 viewBox="0 0 400 400" style="enable-background:new 0 0 400 400;" xml:space="preserve">
<style type="text/css">
	.st0{fill:#0E789C;}
	.st1{fill:#75B632;}
	.st2{fill:#75B634;}
	.st3{fill:#72B434;}
	.st4{fill:#0B779A;}
	.st5{fill:#FFFFFF;}
</style>
<g>
	<path class="st0" d="M199.73,46.25C115.59,46.36,47.46,115.34,47.68,200.2c0.22,84.94,68.68,153.83,152.58,153.55
		c84.09-0.29,152.17-69.26,152.06-154.06C352.21,114.82,283.92,46.15,199.73,46.25z M332.9,199.72
		c0.27,73.42-59.23,134.06-131.9,134.41c-73.8,0.36-133.46-59.42-133.81-133.79c-0.35-73.04,57.6-132.03,128.13-134.51
		C268.98,63.25,332.37,122.35,332.9,199.72z"/>
	<path class="st0" d="M170.53,289.72c27.83,0,54.02,0.02,80.2-0.02c3.51-0.01,5.51-1.93,5.63-5.53c0.1-2.8,0.09-5.61,0-8.42
		c-0.1-3.03-1.66-5.2-4.68-5.32c-2.97-0.12-3.36-1.72-3.36-4.05c0.01-25.08,0-50.17,0.03-75.25c0-1.25-0.63-3.03,1.53-3.28
		c1.53-0.18,2.67,0.54,3.48,1.83c1.28,2.01,1.44,4.28,1.49,6.57c0.4,16.66,0.79,33.31,1.18,49.97c0.09,3.72,0.68,7.36,2.22,10.73
		c2.57,5.62,7.09,8.58,13.18,8.68c6.05,0.1,10.11-3.09,12.52-8.58c2.38-5.4,2.99-11.18,3.04-16.95c0.2-25.26,0.15-50.52,0.27-75.77
		c0.03-6.38-2.34-11.54-6.98-15.78c-5.54-5.06-11.03-10.17-16.48-15.32c-1.44-1.36-2.87-2.41-4.98-2.3
		c-1.75,0.09-2.99,0.97-3.83,2.32c-0.99,1.57,0.32,2.61,1.26,3.6c1.2,1.26,2.39,2.58,3.77,3.6c3.86,2.85,5.41,6.64,5.14,11.39
		c-0.2,3.5-0.34,7.02-0.18,10.51c0.3,6.68,3.65,10.38,10.26,10.9c3.28,0.26,4.57,1.2,4.36,4.71c-1.02,17.71-0.25,35.42,0.01,53.13
		c0.1,6.85-0.22,13.68-1.92,20.36c-0.92,3.61-2.32,6.73-6.92,6.24c-4.53-0.48-6.2-3.72-6.54-7.59c-0.57-6.28-0.81-12.6-0.94-18.91
		c-0.23-10.87-0.23-21.75-0.4-32.62c-0.08-4.94-0.69-9.8-3.62-14.01c-1.8-2.58-4.31-4.2-7.36-4.47c-2.8-0.25-3.69-1.27-3.65-4.2
		c0.25-17.18,0.34-34.37,0.37-51.55c0.02-9.29-4.89-14.23-14.16-14.26c-19.63-0.06-39.26-0.07-58.89,0
		c-9.42,0.04-14.36,5.12-14.38,14.75c-0.05,26.14,0.04,52.27-0.09,78.41c-0.02,3.6,1.28,6.4,3.12,9.22
		c7.19,11,13.36,22.57,17.33,35.13C186.49,263.2,184.6,277.44,170.53,289.72z M204.7,174.31c-7.46,0-14.91,0.04-22.37-0.01
		c-7.37-0.06-10.92-3.55-10.97-10.86c-0.06-10.86-0.05-21.71,0-32.57c0.03-7.17,3.68-11.17,10.8-11.25
		c15.26-0.17,30.52-0.16,45.78-0.01c6.8,0.07,10.71,4.03,10.8,10.81c0.16,11.03,0.15,22.07,0,33.1c-0.09,7.18-3.9,10.73-11.16,10.78
		C219.96,174.35,212.33,174.31,204.7,174.31z"/>
	<path class="st1" d="M148.87,205.07c-7.45,9.3-13.09,19.08-18.03,29.27c-3.35,6.9-6.61,13.9-8.06,21.53
		c-2.84,14.86,6.94,29.5,21.41,32.17c14.12,2.6,28.23-7.23,30.89-21.52c0.92-4.96-0.05-9.77-1.45-14.48
		C168.54,234.89,159.43,219.93,148.87,205.07z"/>
</g>
</svg>
