<?xml version="1.0" encoding="utf-8"?>
<!-- Generator: Adobe Illustrator 25.2.1, SVG Export Plug-In . SVG Version: 6.00 Build 0)  -->
<svg version="1.1" id="Capa_1" xmlns="http://www.w3.org/2000/svg" xmlns:xlink="http://www.w3.org/1999/xlink" x="0px" y="0px"
	 viewBox="0 0 400 400" style="enable-background:new 0 0 400 400;" xml:space="preserve">
<style type="text/css">
	.st0{fill:#0E789C;}
	.st1{fill:#75B632;}
	.st2{fill:#75B634;}
	.st3{fill:#72B434;}
	.st4{fill:#0B779A;}
	.st5{fill:#FFFFFF;}
</style>
<g>
	<path class="st0" d="M199.75,46.25c-84.26,0.05-152.11,68.8-152,154c0.12,84.79,68.39,153.67,152.14,153.49
		c84.43-0.17,152.59-69.24,152.35-154.36C352.01,114.66,283.84,46.21,199.75,46.25z M199.96,65.92
		c73.27,0,132.77,59.86,132.87,133.68c0.1,74.69-59.54,134.51-134.13,134.53c-71.01,0.02-130.74-60.52-131.68-131.65
		C66.03,127.04,126.75,65.24,199.96,65.92z"/>
	<path class="st0" d="M181.92,240.94c3.99-2.01,6.78-2.37,9.69-2.34c10.46,0.08,20.93,0.26,31.39,0.1
		c8.04-0.13,12.49-6.97,9.45-14.03c-1.8-4.18-5.5-5.11-9.45-5.59c-10.84-1.31-21.73-2.35-32.52-3.97c-9.2-1.38-18.3-3.39-27.43-5.18
		c-6.25-1.23-11.91,0.17-16.73,4.23c-9.47,7.96-20.06,14.09-31.16,19.3c-4.56,2.14-6.17,5.32-5.55,10.08
		c1.32,10.03,5.62,18.88,10.84,27.3c1.93,3.11,5.1,3.53,8.02,1.48c14.91-10.47,32.02-10.78,49.11-10.75
		c11.25,0.02,22.49,0.91,33.68,2.3c5.76,0.71,11.12-0.47,16.12-3.64c19.06-12.1,38.57-23.36,59.21-32.56
		c4.02-1.79,8.63-3.75,7.86-9.68c-0.53-4.11-4.67-6.7-11.31-7.12c-5.93-0.37-11.32,2.12-16.86,3.64c-8.2,2.24-16.26,5-24.45,7.29
		c-2.75,0.77-3.92,1.73-3.71,4.92c0.65,9.85-3.6,14.9-13.35,16.87c-11.81,2.4-23.37-0.57-35.01-1.55
		C187.61,241.83,185.46,241.43,181.92,240.94z"/>
	<path class="st1" d="M198.62,183.1c-6.62-13.89-16.05-23.76-31.23-27c-9.16-1.96-10.37-0.66-7.86,8.41
		c4.7,16.93,18.29,28.57,35.67,30.26c2.69,0.26,3.63,1.06,3.47,3.78c-0.21,3.4-0.08,6.82-0.03,10.23c0.04,2.94,1.23,5.27,4.38,5.34
		c3.43,0.08,4.61-2.21,4.6-5.47c-0.05-13,0.06-26-0.08-39c-0.03-2.9,0.86-4.19,3.66-5.12c18.28-6.09,28.42-19.18,31.58-38.13
		c0.61-3.67-0.56-5.13-4.41-4.59c-23.43,3.28-39.75,22.22-39.75,46.28C198.62,173.1,198.62,178.1,198.62,183.1z"/>
</g>
</svg>
