<?xml version="1.0" encoding="utf-8"?>
<!-- Generator: Adobe Illustrator 25.2.1, SVG Export Plug-In . SVG Version: 6.00 Build 0)  -->
<svg version="1.1" id="Capa_1" xmlns="http://www.w3.org/2000/svg" xmlns:xlink="http://www.w3.org/1999/xlink" x="0px" y="0px"
	 viewBox="0 0 400 400" style="enable-background:new 0 0 400 400;" xml:space="preserve">
<style type="text/css">
	.st0{fill:#0E789C;}
	.st1{fill:#75B632;}
	.st2{fill:#75B634;}
	.st3{fill:#72B434;}
	.st4{fill:#0B779A;}
	.st5{fill:#FFFFFF;}
</style>
<g>
	<path class="st0" d="M47.68,200.01c0.05,84.86,68.46,153.87,152.39,153.73c84.04-0.13,152.28-69.1,152.25-153.87
		c-0.03-84.89-68.26-153.67-152.41-153.62C115.72,46.3,47.62,115.08,47.68,200.01z M332.9,199.96
		c0.06,73.73-59.58,134.08-132.61,134.18c-73.46,0.11-132.87-59.85-133.1-134.02C66.96,126.49,125.87,67.69,196.51,65.8
		C268.81,63.86,332.45,122.08,332.9,199.96z"/>
	<path class="st2" d="M133.97,166.97c0,8.61,0.04,17.23-0.01,25.84c-0.24,40.55,19.37,68.33,54.1,86.75
		c8.59,4.55,15.99,3.83,24.5-0.42c28.33-14.15,45.57-36.76,52.54-67.62c0.74-3.29,1.05-6.75,1.07-10.14
		c0.11-23.24,0.1-46.48,0.1-69.72c0-7.86-1.71-10.02-9.21-10.78c-23.98-2.45-47.93-5.74-72.13-4.21
		c-15.24,0.96-30.41,2.59-45.52,4.86c-4.06,0.61-5.57,2.71-5.49,6.94c0.23,12.84,0.08,25.68,0.08,38.52
		C133.99,166.97,133.98,166.97,133.97,166.97z M257.96,169.63c-0.04,0-0.08,0-0.12,0c0,11.38,0.01,22.76-0.01,34.14
		c0,1.62,0.02,3.28-0.31,4.85c-5.61,26.32-19.61,46.37-42.75,60.25c-10.16,6.1-18.86,6.84-29.2,0.3
		c-27.34-17.31-43.35-41.02-43.63-74.27c-0.17-20.16,0.14-40.32-0.15-60.48c-0.06-4.39,1.58-5.59,5.32-6
		c24.77-2.7,49.53-5.65,74.51-2.99c10.7,1.14,21.39,2.3,32.1,3.29c3.45,0.32,4.4,1.83,4.33,5.3
		C257.81,145.89,257.96,157.76,257.96,169.63z"/>
</g>
<path class="st4" d="M253.72,128.73c-10.71-1-21.4-2.16-32.1-3.29c-24.98-2.66-49.74,0.29-74.51,2.99c-3.74,0.41-5.38,1.61-5.32,6
	c0.29,20.15-0.02,40.32,0.15,60.48c0.28,33.25,16.28,56.96,43.63,74.27c10.34,6.54,19.04,5.8,29.2-0.3
	c23.13-13.88,37.13-33.93,42.75-60.25c0.33-1.57,0.31-3.23,0.31-4.85c0.02-11.38,0.01-22.76,0.01-34.14c0.04,0,0.08,0,0.12,0
	c0-11.87-0.14-23.74,0.09-35.6C258.12,130.56,257.17,129.05,253.72,128.73z"/>
<g>
	<g>
		<path class="st5" d="M191.48,163.2c0,7.51,0,14.92,0,22.52c-7.49,0-14.8,0-22.22,0c0,5.71,0,11.25,0,16.98c7.36,0,14.7,0,22.22,0
			c0,7.56,0,14.92,0,22.42c5.66,0,11.15,0,16.87,0c0-7.37,0-14.78,0-22.36c7.52,0,14.81,0,22.35,0c0-0.76,0-1.34,0-1.92
			c0-4.36-0.1-8.72,0.05-13.07c0.06-1.78-0.58-2.1-2.15-2.08c-5.95,0.08-11.91,0.03-17.87,0.03c-0.7,0-1.4,0-2.29,0
			c0-7.59,0-15.01,0-22.53C202.76,163.2,197.27,163.2,191.48,163.2z"/>
	</g>
</g>
</svg>
