<svg xmlns="http://www.w3.org/2000/svg" viewBox="0 0 39.28 55.4"><defs><style>.cls-1{fill:#68b921;}</style></defs><g id="Capa_2" data-name="Capa 2"><g id="Capa_1-2" data-name="Capa 1"><path class="cls-1" d="M8,10a10.22,10.22,0,1,1,20.43.5A10.39,10.39,0,0,1,18,20.5,10.36,10.36,0,0,1,8,10Z"/><path class="cls-1" d="M23.57,32.94a7.86,7.86,0,1,1,8,7.92A7.9,7.9,0,0,1,23.57,32.94Z"/><path class="cls-1" d="M21.05,41.41c.81-.91,1.62-1.82,2.41-2.75.57-.67,1-.53,1.52.09s.95.93.15,1.55c-.28.2-.46.53-.75.73C21,43.36,19.8,46.6,20.46,50.61a11.22,11.22,0,0,1,0,1.74c0,3.11,0,3-3,3-1.32,0-1.5-.55-1.5-1.66.05-5.35,0-10.69.05-16a3.14,3.14,0,0,0-1.1-2.58c-1.29-1.17-2.45-2.48-3.72-3.67-.78-.72-.31-1.11.18-1.69s1-.51,1.5.06c.83,1,1.67,1.93,2.43,2.81.92-.49.67-1,.67-1.42,0-2.91,0-5.81,0-8.72,0-1,.14-1.43,1.34-1.33,3.18.25,3.19.18,3.19,3.46V41.12Z"/><path class="cls-1" d="M6.17,31.26A6.09,6.09,0,0,1,0,25.12a6.18,6.18,0,0,1,6.3-6.07,5.91,5.91,0,0,1,5.88,6.19A5.86,5.86,0,0,1,6.17,31.26Z"/></g></g></svg>