<svg xmlns="http://www.w3.org/2000/svg" viewBox="0 0 35.97 53.06"><defs><style>.cls-1{fill:#68b921;}</style></defs><g id="Capa_2" data-name="Capa 2"><g id="Capa_1-2" data-name="Capa 1"><path class="cls-1" d="M7.45,27.62c-2.77-.43-3-1.05-1.74-3.3,1.57-2.72,3.11-5.44,4.7-8.15.44-.74.74-1.34-.11-2.06s-.46-1.43,0-2.18c2.09-3.6,4.15-7.21,6.25-10.81.85-1.45,2.06-1.5,2.87-.1,2.09,3.6,4.12,7.22,6.21,10.82.51.87.77,1.64-.07,2.45s-.2,1.47.19,2.14c1.59,2.77,3.21,5.52,4.78,8.3,1,1.7.76,2.18-1.13,2.72-1.23.34-.39,1-.16,1.36q3,5.21,6,10.37c.46.79,1.12,1.59.59,2.51s-1.6.7-2.49.7q-15.32,0-30.62,0c-.88,0-1.91.25-2.47-.73S.37,40,.82,39.2Z"/><path class="cls-1" d="M20.12,48.3v1.88c0,2.53-1.18,3.35-3.65,2.62-.64-.18-.58-.61-.58-1,0-2.4,0-4.8,0-7.19,0-.8.27-1,1.08-1.1,3.17-.18,3.17-.21,3.17,3Z"/></g></g></svg>