<svg xmlns="http://www.w3.org/2000/svg" viewBox="0 0 33.41 55.06"><defs><style>.cls-1{fill:#68b921;}</style></defs><g id="Capa_2" data-name="Capa 2"><g id="Capa_1-2" data-name="Capa 1"><path class="cls-1" d="M16.72,44.57H3c-2.65,0-3.52-1.15-2.62-3.63Q7.4,21.47,14.5,2c.41-1.12.95-2,2.29-2s1.77.93,2.15,2q6.27,17.25,12.55,34.52c.55,1.52,1.14,3,1.64,4.59.76,2.35,0,3.46-2.47,3.47-4.65,0-9.29,0-13.94,0Z"/><path class="cls-1" d="M19,50.3a20.48,20.48,0,0,0,0,2.6c.22,1.65-.35,2.25-2.07,2.14-2.68-.16-2.35.24-2.36-2.48,0-1.91,0-3.82,0-5.73,0-1,.24-1.45,1.34-1.42,3.81.09,3-.31,3.09,3C19,49,19,49.66,19,50.3Z"/></g></g></svg>