<svg xmlns="http://www.w3.org/2000/svg" viewBox="0 0 54.62 54.86"><defs><style>.cls-1{fill:#68b921;}</style></defs><g id="Capa_2" data-name="Capa 2"><g id="Capa_1-2" data-name="Capa 1"><path class="cls-1" d="M26.61,33A13.31,13.31,0,1,1,13.22,19.69,13.31,13.31,0,0,1,26.61,33Z"/><path class="cls-1" d="M54.62,33a13.1,13.1,0,0,1-26.19,0c-.15-7.75,6.63-13.26,13.25-13.18A13.08,13.08,0,0,1,54.62,33Z"/><path class="cls-1" d="M40.88,13.16c-.07.61-.15,1.24-.21,1.88-.2,2.21-.78,3.83-3.44,4.42-3.34.74-5.82,3-7.65,5.93-1.1,1.73-2.51,1.79-3.64.07a14.16,14.16,0,0,0-10.1-6.7,1.06,1.06,0,0,1-.94-.8A13.58,13.58,0,0,1,19,3a13.57,13.57,0,0,1,15.78-.83A13.73,13.73,0,0,1,40.88,13.16Z"/><path class="cls-1" d="M27.34,36.52a13.79,13.79,0,0,1,2.39,8.76,75.86,75.86,0,0,0,0,8c0,1.22-.36,1.72-1.58,1.57a4.9,4.9,0,0,0-1.21,0c-1.22.16-1.59-.35-1.57-1.56.06-3.71,0-7.41,0-11.12C25.38,40.14,27.08,38.8,27.34,36.52Z"/></g></g></svg>