<svg xmlns="http://www.w3.org/2000/svg" viewBox="0 0 59.59 53.32"><defs><style>.cls-1{fill:#68b921;}</style></defs><g id="Capa_2" data-name="Capa 2"><g id="Capa_1-2" data-name="Capa 1"><path class="cls-1" d="M0,53.32V50.17H2.86V3.37H32.3V19.61h3.16c.16-2.59.33-5.17.48-7.75.17-3.08.34-6.15.46-9.23,0-.34-.32-.7-.49-1s-.43-.71-.38-1,.53-.5.83-.52a27.61,27.61,0,0,1,3.28,0,1.21,1.21,0,0,1,.89.6c.07.25-.29.63-.47,1s-.43.5-.42.74c.28,5.74.6,11.48.91,17.3h3.56c.13-1.93.26-3.81.36-5.7.2-3.72.39-7.45.52-11.17,0-.41-.37-.83-.56-1.26-.12-.27-.36-.63-.28-.83a1.12,1.12,0,0,1,.76-.61,29.7,29.7,0,0,1,3.53,0,1.11,1.11,0,0,1,.78.61c.07.24-.23.6-.4.89s-.55.61-.54.9c.26,5.58.57,11.16.88,16.74a3.43,3.43,0,0,0,.11.51h4V29.92l.31-.14c.27.35.75.72.74,1s-.47.79-.93,1.48V41.7c.65,0,1.2,0,1.76,0a2.64,2.64,0,0,1,2.87,2.89c0,1.78,0,3.56,0,5.42l1.53.24v3.07ZM35.74,30h3c0-2.21,0-4.35,0-6.48A1.42,1.42,0,0,0,37.29,22a1.4,1.4,0,0,0-1.53,1.41C35.7,25.62,35.74,27.79,35.74,30Zm8.87,0c0-2.24,0-4.38,0-6.51a1.5,1.5,0,0,0-3-.06c-.06,2.17,0,4.34,0,6.57Zm5.82,0c0-2.27,0-4.44,0-6.62a1.26,1.26,0,0,0-1.54-1.31c-.56.13-1.35.85-1.38,1.35-.15,2.16-.07,4.34-.07,6.58ZM12.83,31.3l3-.42a10.19,10.19,0,0,0-.45-2.62c-.14-.32-1.22-.55-1.67-.35C12.36,28.53,12.89,29.86,12.83,31.3Zm-3.45-.21c0-1.19.38-2.38-.74-3.08a1.81,1.81,0,0,0-1.56,0c-1.18.73-.76,1.95-.74,3.11Zm19.54.17c-.11-1.34.52-2.68-.88-3.33-.44-.21-1.55,0-1.68.31a10,10,0,0,0-.44,2.65ZM9.4,12.66c0-1.13.4-2.32-.74-3A1.88,1.88,0,0,0,7,9.65c-1.12.73-.7,1.91-.66,3Zm3.42,0h3c.05-1.13.43-2.31-.69-3a1.79,1.79,0,0,0-1.55-.05C12.39,10.25,12.9,11.48,12.82,12.66ZM28.93,25.14c-.1-1.21.46-2.49-.86-3.15a1.8,1.8,0,0,0-1.55.13c-1.07.77-.63,1.93-.59,3Zm-22.6,0h3c.27-2.22-.23-3.33-1.46-3.34S6.2,22.67,6.33,25.1ZM28.9,12.67c-.06-1.12.48-2.33-.68-3a1.87,1.87,0,0,0-1.65,0c-1.12.72-.68,1.9-.65,3Zm-13,12.47c-.07-1.15.4-2.34-.73-3.05a1.85,1.85,0,0,0-1.64,0c-1.16.74-.72,1.95-.67,3.07Zm6.5,5.95c-.18-1.14.46-2.37-.75-3.07A1.91,1.91,0,0,0,20,28c-1.13.75-.52,1.95-.67,3.06ZM15.9,18.61c-.05-1.18.41-2.39-.76-3.07a1.86,1.86,0,0,0-1.64.08c-1.1.74-.62,1.91-.63,3Zm13,0c0-1.14.47-2.38-.78-3.07a1.81,1.81,0,0,0-1.54.06c-1.15.72-.64,1.9-.7,3Zm-19.51,0c0-1.19.38-2.39-.79-3.06a1.78,1.78,0,0,0-1.56,0c-1.14.71-.7,1.91-.72,3Zm13-5.92c-.14-1.17.48-2.41-.77-3.09a1.87,1.87,0,0,0-1.57,0c-1.17.73-.56,1.93-.68,3.05Zm0,12.45c-.12-1.18.46-2.47-.85-3.13a1.81,1.81,0,0,0-1.54.12c-1.1.76-.55,1.93-.59,3Zm-3-6.56h3c-.2-1.12.44-2.37-.82-3a1.79,1.79,0,0,0-1.55.05C18.9,16.3,19.48,17.48,19.43,18.56Zm34,24.38c-.15,1.13.62.9,1.09.86,1.12-.1,1.51.32,1.43,1.45-.09,1.37,0,2.75,0,4.13,0,.24.25.48.39.72.16-.23.45-.45.45-.68,0-1.66,0-3.32,0-5A1.4,1.4,0,0,0,55.46,43,19.8,19.8,0,0,0,53.42,42.94Zm-.06,2.19c0,1.56,0,3,0,4.37a.87.87,0,0,0,.63.59.89.89,0,0,0,.65-.58c0-1.44,0-2.89,0-4.38Z"/></g></g></svg>