<svg xmlns="http://www.w3.org/2000/svg" viewBox="0 0 66.23 54.55"><defs><style>.cls-1{fill:#68b921;}</style></defs><g id="Capa_2" data-name="Capa 2"><g id="Capa_1-2" data-name="Capa 1"><path class="cls-1" d="M66.23,12.19l-.88,1.69-1.32-1V54.43H56.17V41.25H48v13.2c-.59,0-1,.07-1.45.07-13.42,0-26.85,0-40.27,0-1.27,0-1.53-.41-1.52-1.57,0-6.43,0-12.85,0-19.28V31.9H0c.37-.49.58-.79.81-1.07,2.3-2.73,4.62-5.43,6.88-8.19a2.55,2.55,0,0,1,2.24-1c9.6,0,19.19,0,28.79,0h1.55V13l-1.18.78-.91-1.6L52.21,0ZM48.31,29.3h7.45V25.39H48.31Zm0-4.77h7.5v-3.8h-7.5Zm-27.7,17.8h4.54V36.2c-1.35,0-2.65,0-4,0a.77.77,0,0,0-.55.55C20.6,38.61,20.61,40.44,20.61,42.33Zm4.62,1.33c-.6,0-1-.07-1.46-.07-3.17,0-3.17,0-3.17,3.15V49.8c1.5,0,2.65.06,3.78,0A1.19,1.19,0,0,0,25.2,49C25.27,47.24,25.23,45.53,25.23,43.66Zm-10.52-.07c0,1.95,0,3.67,0,5.38,0,.28.36.77.57.79,1.29.07,2.59,0,4,0,0-1.93,0-3.68,0-5.43,0-.26-.4-.72-.64-.73C17.41,43.55,16.14,43.59,14.71,43.59Zm4.62-1.26c0-1.88,0-3.72,0-5.55a.81.81,0,0,0-.56-.55c-1.3,0-2.61,0-4,0v6.13Zm7.31-6.09v6.09H31V36.24Zm5.82,0v6h4.41v-6Zm4.4,7.47H32.45v6h4.41ZM31,43.68H26.63v6H31ZM9,43.66v6.05h4.39V43.66Zm4.35-7.4H9v6.05h4.46V37.09A8.29,8.29,0,0,0,13.31,36.26Zm36.84-24H54V10.28H50.15ZM54,9.5V7.58H50.14V9.5Z"/></g></g></svg>